<svg width="1199" height="669" viewBox="0 0 1199 669" fill="none" xmlns="http://www.w3.org/2000/svg">
<path d="M476.925 324.144C486.563 334.849 488.63 346.513 483.187 357.905C477.767 369.251 467.242 374.658 453.35 373.991C411.814 371.998 370.268 370.223 328.726 368.366C323.696 368.141 319.828 369.847 319.437 375.377C319.04 381.012 322.905 382.997 327.782 383.516C375.937 388.639 424.126 392.883 472.658 390.614C488.084 389.892 502.452 386.159 516.249 379.172C548.434 362.873 581.818 349.421 616.22 338.538C620.186 337.283 624.301 336.416 628.404 335.698C639.416 333.769 648.704 337.474 653.765 345.598C659.155 354.253 658.528 366.169 652.19 374.792C648.997 379.135 644.936 382.464 639.977 384.574C578.959 410.544 517.988 436.629 456.868 462.358C436.413 470.968 415.084 471.632 393.382 467.433C333.399 455.828 273.371 444.452 213.375 432.911C210.094 432.28 207.448 433.06 204.667 434.67C194.021 440.832 183.198 446.696 172.638 453C169.387 454.94 168.085 454.615 166.359 451.229C145.817 410.906 125.156 370.644 104.411 330.425C102.894 327.484 103.05 326.128 106.048 324.276C126.621 311.574 146.611 297.863 167.636 285.975C193.13 271.559 221.318 268.643 250.069 271.047C273.994 273.047 296.555 280.335 318.144 290.595C335.168 298.685 353.622 300.399 371.822 303.277C402.443 308.12 433.086 312.823 463.726 317.546C468.687 318.311 472.797 320.695 476.925 324.144Z" fill="url(#paint0_linear_2_34)"/>
<path d="M57.5075 354.238C64.3959 349.873 70.9636 345.89 77.3648 341.656C80.0201 339.9 81.4797 339.436 83.2505 342.92C103.52 382.796 123.917 422.609 144.413 462.37C145.962 465.375 145.784 466.754 142.705 468.404C134.199 472.961 125.944 477.982 117.47 482.602C110.923 486.172 105.608 484.719 101.895 478.127C82.6272 443.915 63.4442 409.654 44.3405 375.35C40.7273 368.862 42.0258 364.351 48.2018 360.122C51.0959 358.14 54.1422 356.38 57.5075 354.238Z" fill="url(#paint1_linear_2_34)"/>
<path d="M589.996 315.484C596.556 316.096 602.092 317.761 606.981 322.612C588.977 327.402 572.211 334.178 555.39 340.773C538.693 347.32 522.156 354.259 505.754 362.938C506.553 356.207 507.509 350.114 506.13 344.022C505.66 341.944 506.411 340.811 508.468 340.088C535.104 330.719 561.37 320.147 589.996 315.484Z" fill="url(#paint2_linear_2_34)"/>
<path d="M498.989 305.889C513.648 302.557 527.747 299.164 541.925 296.141C550.119 294.394 557.462 296.582 564.793 302.981C554.597 305.567 545.357 307.84 536.156 310.261C524.901 313.223 513.591 316.094 502.953 320.91C499.677 322.393 497.987 321.98 496.033 318.945C493.925 315.67 491.045 312.89 488.249 309.597C491.397 307.36 495.129 307.182 498.989 305.889Z" fill="url(#paint3_linear_2_34)"/>
<path fill-rule="evenodd" clip-rule="evenodd" d="M417.122 295.572C476.612 298.012 527.494 263.938 549.193 206.726C579.106 118.935 514.494 29.2318 422.279 29.8233C341.454 30.3417 279.545 103.265 292.058 183.214C301.817 245.568 354.622 293.008 417.122 295.572ZM440.202 56.5426C390.702 49.2023 344.413 75.1485 324.201 121.882C316.132 142.273 314.175 162.75 318.211 183.816C329.025 240.261 383.436 277.846 441.31 268.803C496.726 260.145 537.243 206.624 530.491 151C524.584 102.336 487.518 63.5591 440.202 56.5426Z" fill="url(#paint4_linear_2_34)"/>
<path d="M456.913 215.027C450.943 218.558 444.916 220.596 438.604 221.655C435.157 222.233 433.911 223.709 434.078 227.286C434.301 232.068 435.652 238.395 433.221 241.289C430.323 244.739 423.712 241.815 418.812 242.592C412.165 243.646 410.752 240.819 411.064 234.657C411.589 224.282 411.219 224.18 400.787 223.037C392.22 222.099 383.935 220.089 375.806 217.273C372.767 216.22 371.741 214.875 373.039 211.497C375.237 205.773 375.188 197.831 379.163 194.533C382.974 191.371 389.574 197.178 395.168 198.339C405.127 200.408 415.06 202.086 425.228 200.432C427.802 200.014 430.447 199.38 432.782 198.265C441.092 194.295 441.901 185.988 434.514 180.455C428.972 176.304 422.367 174.434 415.834 172.509C406.335 169.711 396.93 166.679 388.495 161.306C368.514 148.576 368.193 124.015 387.855 110.748C393.745 106.773 400.259 104.023 407.218 102.803C411.318 102.084 412.503 100.415 412.477 96.3328C412.391 82.9671 412.56 82.966 425.591 82.9768C435.313 82.9848 435.631 82.9986 435.214 92.6192C434.972 98.1922 436.17 100.85 442.391 100.868C449.636 100.889 456.717 102.7 463.712 104.771C467.56 105.91 469.325 107.095 467.491 111.499C465.307 116.745 465.4 124.14 461.695 127.21C458.062 130.219 451.919 124.801 446.624 123.953C437.674 122.519 428.736 121.339 419.747 123.073C414.889 124.009 410.193 125.8 409.168 131.532C408.077 137.632 412.668 140.046 416.979 142.331C423.605 145.843 430.773 148.003 437.902 150.22C445.473 152.573 452.89 155.302 459.638 159.529C479.577 172.018 480.817 196.915 462.249 211.486C460.699 212.702 458.988 213.713 456.913 215.027Z" fill="url(#paint5_linear_2_34)"/>
<g filter="url(#filter0_d_2_34)">
<path d="M722.075 478.824C712.437 489.529 710.37 501.193 715.813 512.585C721.233 523.931 731.758 529.338 745.65 528.671C787.186 526.678 828.732 524.903 870.274 523.046C875.304 522.821 879.172 524.527 879.562 530.057C879.96 535.692 876.095 537.677 871.218 538.196C823.062 543.319 774.874 547.563 726.342 545.294C710.916 544.572 696.548 540.839 682.751 533.852C650.566 517.553 617.182 504.101 582.78 493.218C578.814 491.963 574.699 491.096 570.596 490.378C559.584 488.449 550.296 492.154 545.235 500.278C539.845 508.933 540.472 520.849 546.81 529.472C550.003 533.815 554.064 537.144 559.023 539.254C620.041 565.224 681.012 591.309 742.132 617.038C762.587 625.648 783.916 626.312 805.618 622.113C865.601 610.508 925.629 599.132 985.625 587.591C988.906 586.96 991.552 587.74 994.333 589.35C1004.98 595.512 1015.8 601.376 1026.36 607.68C1029.61 609.62 1030.92 609.295 1032.64 605.909C1053.18 565.586 1073.84 525.324 1094.59 485.105C1096.11 482.164 1095.95 480.808 1092.95 478.956C1072.38 466.254 1052.39 452.543 1031.36 440.655C1005.87 426.239 977.682 423.323 948.931 425.727C925.006 427.727 902.445 435.015 880.856 445.275C863.832 453.365 845.378 455.079 827.178 457.957C796.557 462.8 765.914 467.503 735.274 472.226C730.313 472.991 726.203 475.375 722.075 478.824Z" fill="url(#paint6_linear_2_34)"/>
<path d="M1141.49 508.918C1134.6 504.553 1128.04 500.57 1121.64 496.336C1118.98 494.58 1117.52 494.116 1115.75 497.6C1095.48 537.476 1075.08 577.289 1054.59 617.05C1053.04 620.055 1053.22 621.434 1056.29 623.084C1064.8 627.641 1073.06 632.662 1081.53 637.282C1088.08 640.852 1093.39 639.399 1097.1 632.807C1116.37 598.595 1135.56 564.334 1154.66 530.03C1158.27 523.542 1156.97 519.031 1150.8 514.802C1147.9 512.82 1144.86 511.06 1141.49 508.918Z" fill="url(#paint7_linear_2_34)"/>
<path d="M609.004 470.164C602.444 470.776 596.908 472.441 592.019 477.292C610.023 482.082 626.789 488.858 643.61 495.453C660.307 502 676.844 508.939 693.246 517.618C692.447 510.887 691.491 504.794 692.87 498.702C693.34 496.624 692.589 495.491 690.532 494.768C663.896 485.399 637.63 474.827 609.004 470.164Z" fill="url(#paint8_linear_2_34)"/>
<path d="M700.011 460.569C685.352 457.237 671.253 453.844 657.075 450.821C648.881 449.074 641.538 451.262 634.207 457.661C644.403 460.247 653.643 462.52 662.844 464.941C674.099 467.903 685.409 470.774 696.047 475.59C699.323 477.073 701.013 476.66 702.967 473.625C705.075 470.35 707.955 467.57 710.751 464.277C707.603 462.04 703.871 461.862 700.011 460.569Z" fill="url(#paint9_linear_2_34)"/>
<path d="M798.14 121.485C777.86 128.067 763.094 140.876 754.022 159.91L748.329 172.007L736.766 172.897C713.64 174.498 691.759 190.152 681.263 212.567C670.412 235.871 673.08 265.046 688.201 285.326L694.783 294.22V313.789C694.961 331.044 695.495 334.602 699.764 343.497C708.837 362.887 726.448 377.83 746.728 383.167C762.561 387.259 779.105 386.014 794.226 379.609C797.072 378.364 797.25 379.965 797.25 398.644C797.25 424.616 797.606 424.972 819.131 424.972C839.767 424.972 839.945 424.794 839.945 398.822C839.945 379.965 840.122 378.364 843.147 379.609C878.548 394.908 918.574 380.321 936.541 345.81C941.878 335.67 942.234 334.069 942.411 314.5L942.589 293.865L949.171 285.148C969.273 257.93 966.249 216.836 942.234 192.821C931.382 181.969 913.593 173.608 899.361 172.719L888.687 172.007L883.529 160.444C876.946 145.323 864.85 132.871 849.373 125.577C838.877 120.596 835.141 119.884 821.266 119.529C811.659 119.173 802.409 120.062 798.14 121.485ZM841.012 141.054C857.734 148.881 869.831 165.425 872.855 184.46C874.1 191.931 874.278 192.109 879.615 190.864C908.078 184.638 936.185 201.182 944.19 228.755C949.705 247.79 944.724 265.401 929.247 281.234L921.064 289.773L923.199 297.778C930.848 326.775 917.151 354.348 889.933 364.666C877.48 369.291 861.826 368.58 849.551 362.709L841.19 358.618L851.863 353.815C871.254 344.92 881.394 330.866 884.596 308.096C887.442 288.172 881.928 284.614 858.623 290.662C844.926 294.22 832.295 301.336 824.824 309.519L818.953 316.101L811.304 308.096C801.52 298.312 788.889 292.263 772.345 289.417C755.623 286.571 753.844 287.638 753.132 301.692C752.065 323.395 764.696 343.675 785.153 353.637L795.827 358.618L787.644 362.532C746.728 382.456 701.365 342.785 714.174 298.49L717.02 289.061L709.193 281.412C697.274 269.493 693.182 259.709 693.182 242.631C693.182 230.179 693.894 227.154 698.519 218.793C710.794 196.557 734.987 185.527 759.537 191.042C764.695 192.109 764.873 191.931 766.119 183.57C768.787 165.247 779.461 150.482 795.827 142.299C810.236 135.005 827.136 134.65 841.012 141.054Z" fill="url(#paint10_linear_2_34)"/>
</g>
<defs>
<filter id="filter0_d_2_34" x="537.586" y="119.45" width="623.069" height="527.729" filterUnits="userSpaceOnUse" color-interpolation-filters="sRGB">
<feFlood flood-opacity="0" result="BackgroundImageFix"/>
<feColorMatrix in="SourceAlpha" type="matrix" values="0 0 0 0 0 0 0 0 0 0 0 0 0 0 0 0 0 0 127 0" result="hardAlpha"/>
<feOffset dy="4"/>
<feGaussianBlur stdDeviation="2"/>
<feComposite in2="hardAlpha" operator="out"/>
<feColorMatrix type="matrix" values="0 0 0 0 0 0 0 0 0 0 0 0 0 0 0 0 0 0 0.25 0"/>
<feBlend mode="normal" in2="BackgroundImageFix" result="effect1_dropShadow_2_34"/>
<feBlend mode="normal" in="SourceGraphic" in2="effect1_dropShadow_2_34" result="shape"/>
</filter>
<linearGradient id="paint0_linear_2_34" x1="627.839" y1="239.529" x2="472.504" y2="700.538" gradientUnits="userSpaceOnUse">
<stop stop-color="#6CFF69"/>
<stop offset="1" stop-color="#4CA1B4"/>
</linearGradient>
<linearGradient id="paint1_linear_2_34" x1="139.868" y1="318.094" x2="-38.9995" y2="454.798" gradientUnits="userSpaceOnUse">
<stop stop-color="#6CFF69"/>
<stop offset="1" stop-color="#4CA1B4"/>
</linearGradient>
<linearGradient id="paint2_linear_2_34" x1="601.576" y1="308.172" x2="556.718" y2="410.527" gradientUnits="userSpaceOnUse">
<stop stop-color="#6CFF69"/>
<stop offset="1" stop-color="#4CA1B4"/>
</linearGradient>
<linearGradient id="paint3_linear_2_34" x1="560.706" y1="291.528" x2="541.18" y2="352.597" gradientUnits="userSpaceOnUse">
<stop stop-color="#6CFF69"/>
<stop offset="1" stop-color="#4CA1B4"/>
</linearGradient>
<linearGradient id="paint4_linear_2_34" x1="542.374" y1="-11.1461" x2="201.361" y2="353.983" gradientUnits="userSpaceOnUse">
<stop stop-color="#6CFF69"/>
<stop offset="1" stop-color="#4CA1B4"/>
</linearGradient>
<linearGradient id="paint5_linear_2_34" x1="469.924" y1="58.3172" x2="277.774" y2="190.511" gradientUnits="userSpaceOnUse">
<stop stop-color="#6CFF69"/>
<stop offset="1" stop-color="#4CA1B4"/>
</linearGradient>
<linearGradient id="paint6_linear_2_34" x1="678.414" y1="444.879" x2="811.175" y2="758.163" gradientUnits="userSpaceOnUse">
<stop stop-color="#02B3FF"/>
<stop offset="1" stop-color="#0047FF"/>
</linearGradient>
<linearGradient id="paint7_linear_2_34" x1="1079.08" y1="509.368" x2="1197.52" y2="581.343" gradientUnits="userSpaceOnUse">
<stop stop-color="#02B3FF"/>
<stop offset="1" stop-color="#0047FF"/>
</linearGradient>
<linearGradient id="paint8_linear_2_34" x1="617.023" y1="474.895" x2="654.155" y2="542.263" gradientUnits="userSpaceOnUse">
<stop stop-color="#02B3FF"/>
<stop offset="1" stop-color="#0047FF"/>
</linearGradient>
<linearGradient id="paint9_linear_2_34" x1="653.114" y1="452.852" x2="669.887" y2="494.563" gradientUnits="userSpaceOnUse">
<stop stop-color="#02B3FF"/>
<stop offset="1" stop-color="#0047FF"/>
</linearGradient>
<linearGradient id="paint10_linear_2_34" x1="891.369" y1="394.51" x2="615.426" y2="173.436" gradientUnits="userSpaceOnUse">
<stop stop-color="#02B3FF"/>
<stop offset="1" stop-color="#0047FF"/>
</linearGradient>
</defs>
</svg>
